Patient4_TMGait_0pt5_01_right_42_GRF.mot
version=1
nRows=45
nColumns=19
inDegrees=no
endheader
time	F1x	F1y	F1z	M1x	M1y	M1z	F2x	F2y	F2z	M2x	M2y	M2z	EC1x	EC1y	EC1z	EC2x	EC2y	EC2z
55.33	-29.2495	757.6468	59.5285	-253.3117	-54.4276	614.3466	10.6145	8.2018	-12.0671	4.8772	16.6224	-2.6873	-0.0592	0.0182	-0.0073	-0.0462	0.0165	0.9585
55.3434	-21.1881	751.7593	59.5982	-250.4589	-52.0871	610.6814	7.0079	6.1548	-8.1629	3.5839	11.3568	-1.1426	-0.0592	0.0182	-0.0073	-0.0462	0.0165	0.9585
55.3569	-13.8038	744.8948	59.6178	-247.2347	-49.7699	605.1296	3.989	4.4044	-4.8035	2.4676	6.8309	0.1403	-0.0592	0.0182	-0.0073	-0.0462	0.0165	0.9585
55.3703	-7.5017	737.9094	59.6138	-243.9557	-47.6194	598.3228	1.7061	3.0745	-2.2084	1.61	3.3389	1.1142	-0.0592	0.0182	-0.0073	-0.0462	0.0165	0.9585
55.3837	-2.3614	731.7112	59.6089	-240.9449	-45.6978	591.1073	0.13328	2.1641	-0.39198	1.0158	0.89917	1.7882	-0.0592	0.0182	-0.0073	-0.0462	0.0165	0.9585
55.3971	1.7224	727.0325	59.6321	-238.4613	-44.0316	584.2621	-0.83624	1.5966	0.74832	0.64501	-0.62887	2.19	-0.0592	0.0182	-0.0073	-0.0462	0.0165	0.9585
55.4106	4.9364	724.307	59.6724	-236.665	-42.587	578.3344	-1.3707	1.2772	1.3611	0.43992	-1.442	2.3821	-0.0592	0.0182	-0.0073	-0.0462	0.0165	0.9585
55.424	7.5044	723.6547	59.7206	-235.6115	-41.3209	573.597	-1.6118	1.0849	1.5996	0.33333	-1.7466	2.3723	-0.0592	0.0182	-0.0073	-0.0462	0.0165	0.9585
55.4374	9.6416	724.9368	59.73	-235.2712	-40.1562	570.0927	-1.7003	0.9128	1.597	0.26156	-1.7187	2.1829	-0.0592	0.0182	-0.0073	-0.0462	0.0165	0.9585
55.4509	11.5535	727.7977	59.6635	-235.5433	-39.0265	567.6446	-1.7222	0.64474	1.4523	0.162	-1.4983	1.7971	-0.0592	0.0182	-0.0073	-0.0462	0.0165	0.9585
55.4643	13.4018	731.7696	59.4646	-236.2887	-37.8514	565.9576	-1.7292	0.17449	1.2379	-0.021323	-1.189	1.1819	-0.0592	0.0182	-0.0073	-0.0462	0.0165	0.9585
55.4777	15.3106	736.3354	59.1137	-237.3464	-36.5833	564.6755	-1.7516	-0.58492	1.0023	-0.33317	-0.86088	0.30397	-0.0592	0.0182	-0.0073	-0.0462	0.0165	0.9585
55.4911	17.3821	740.9985	58.5989	-238.5502	-35.1781	563.4401	-1.7664	-1.7047	0.77453	-0.80417	-0.5655	-0.88594	-0.0592	0.0182	-0.0073	-0.0462	0.0165	0.9585
55.5046	19.6945	745.3342	57.9505	-239.7433	-33.6259	561.9424	-1.7361	-3.1691	0.57022	-1.4292	-0.33603	-2.3551	-0.0592	0.0182	-0.0073	-0.0462	0.0165	0.9585
55.518	22.3021	749.0209	57.2097	-240.7984	-31.9273	559.9395	-1.5728	-4.8594	0.40911	-2.1556	-0.21859	-4.0045	-0.0592	0.0182	-0.0073	-0.0462	0.0165	0.9585
55.5314	25.2078	751.8519	56.4374	-241.6213	-30.1138	557.2998	-1.1692	-6.4779	0.31043	-2.8556	-0.26576	-5.5635	-0.0592	0.0182	-0.0073	-0.0462	0.0165	0.9585
55.5449	28.3831	753.6994	55.6892	-242.141	-28.2283	553.9616	-0.38859	-7.5038	0.30804	-3.303	-0.5663	-6.5464	-0.0592	0.0182	-0.0073	-0.0462	0.0165	0.9585
55.5583	31.7491	754.5168	55.0298	-242.3129	-26.3406	549.945	0.91836	-7.1422	0.44396	-3.1497	-1.2212	-6.2305	-0.0592	0.0182	-0.0073	-0.0462	0.0165	0.9585
55.5717	35.2235	754.33	54.5217	-242.1217	-24.5234	545.3107	2.8704	-4.2807	0.77883	-1.9083	-2.3354	-3.6051	-0.0592	0.0182	-0.0073	-0.0462	0.0165	0.9585
55.5851	38.7287	753.2008	54.2016	-241.5727	-22.8325	540.1375	5.5309	2.4889	1.3734	1.0383	-3.9873	2.6139	-0.0592	0.0182	-0.0073	-0.0462	0.0165	0.9585
55.5986	42.2051	751.1587	54.0389	-240.6746	-21.2682	534.4792	8.8142	14.7736	2.2852	6.3894	-6.1886	13.9075	-0.0592	0.0182	-0.0073	-0.0462	0.0165	0.9585
55.612	45.6117	748.0814	53.9327	-239.4005	-19.7806	528.2697	12.4044	34.0998	3.5379	14.8126	-8.814	31.687	-0.0592	0.0182	-0.0073	-0.0462	0.0165	0.9585
55.6254	48.8791	743.5938	53.7312	-237.6503	-18.297	521.2837	15.6283	61.4777	5.0871	26.751	-11.5214	56.9072	-0.0592	0.0182	-0.0073	-0.0462	0.0165	0.9585
55.6389	51.9313	736.9648	53.2521	-235.2133	-16.7279	513.0524	17.4497	96.7871	6.8248	42.1521	-13.7616	89.4979	-0.0592	0.0182	-0.0073	-0.0462	0.0165	0.9585
55.6523	54.6395	727.1227	52.3197	-231.7677	-15.0048	502.9001	16.6148	137.9802	8.5377	60.1193	-14.8052	127.6187	-0.0592	0.0182	-0.0073	-0.0462	0.0165	0.9585
55.6657	56.8575	712.8294	50.7911	-226.9357	-13.0885	490.0391	12.3688	180.5962	9.7619	78.6942	-13.9181	167.2178	-0.0592	0.0182	-0.0073	-0.0462	0.0165	0.9585
55.6791	58.4482	693.0451	48.6036	-220.3976	-10.9946	473.8013	5.8353	219.1277	9.843	95.4497	-10.9815	203.2147	-0.0592	0.0182	-0.0073	-0.0462	0.0165	0.9585
55.6926	59.2951	667.2775	45.7984	-212.0014	-8.7937	453.8949	-1.2635	249.7736	8.7738	108.7277	-6.7696	231.9501	-0.0592	0.0182	-0.0073	-0.0462	0.0165	0.9585
55.706	59.3921	635.6532	42.5187	-201.7839	-6.5832	430.4121	-7.7369	272.1341	6.8493	118.3501	-2.0864	252.895	-0.0592	0.0182	-0.0073	-0.0462	0.0165	0.9585
55.7194	58.7994	598.7933	38.9083	-189.936	-4.4293	403.7733	-13.0822	288.3854	4.5327	125.2688	2.4091	268.0289	-0.0592	0.0182	-0.0073	-0.0462	0.0165	0.9585
55.7329	57.6294	557.5964	35.0644	-176.7391	-2.3554	374.5626	-17.3123	301.7361	2.1038	130.8897	6.4715	280.3244	-0.0592	0.0182	-0.0073	-0.0462	0.0165	0.9585
55.7463	55.9571	513.0669	31.02	-162.5081	-0.35244	343.4509	-20.6822	315.5919	-0.26909	136.6906	10.0703	292.9052	-0.0592	0.0182	-0.0073	-0.0462	0.0165	0.9585
55.7597	53.7657	466.1323	26.8082	-147.534	1.5564	311.0611	-23.4564	333.0731	-2.7068	144.0033	13.4444	308.5914	-0.0592	0.0182	-0.0073	-0.0462	0.0165	0.9585
55.7731	50.9306	417.6045	22.5018	-132.0697	3.2888	277.9375	-25.8398	356.6858	-5.4351	153.8772	16.8971	329.6106	-0.0592	0.0182	-0.0073	-0.0462	0.0165	0.9585
55.7866	47.2784	368.2205	18.2442	-116.3436	4.7001	244.5688	-28.052	387.8947	-8.8149	166.8958	20.8455	357.2644	-0.0592	0.0182	-0.0073	-0.0462	0.0165	0.9585
55.8	42.6799	318.7345	14.2145	-100.5946	5.6394	211.4189	-30.2879	426.7896	-13.1535	183.0554	25.639	391.5911	-0.0592	0.0182	-0.0073	-0.0462	0.0165	0.9585
55.8134	37.1164	270.0715	10.602	-85.1187	5.9842	179.0557	-32.7478	472.2876	-18.6495	201.8569	31.523	431.5908	-0.0592	0.0182	-0.0073	-0.0462	0.0165	0.9585
55.8269	30.7569	223.3524	7.57	-70.2777	5.6928	148.1466	-35.5365	522.5989	-25.2284	222.5225	38.4582	475.6239	-0.0592	0.0182	-0.0073	-0.0462	0.0165	0.9585
55.8403	23.9448	179.7677	5.2189	-56.4534	4.8246	119.407	-38.6399	575.6172	-32.6093	244.1571	46.1766	521.7806	-0.0592	0.0182	-0.0073	-0.0462	0.0165	0.9585
55.8537	17.1573	140.3656	3.5513	-43.9784	3.5439	93.4538	-41.9306	629.0455	-40.3812	265.8006	54.2507	567.9987	-0.0592	0.0182	-0.0073	-0.0462	0.0165	0.9585
55.8671	10.8719	105.8649	2.4662	-33.0794	2.0783	70.7051	-45.1829	680.431	-48.0795	286.4503	62.1706	612.0711	-0.0592	0.0182	-0.0073	-0.0462	0.0165	0.9585
55.8806	5.4755	76.5665	1.7988	-23.852	0.66101	51.3418	-48.1487	727.3941	-55.2492	305.1428	69.4307	651.8902	-0.0592	0.0182	-0.0073	-0.0462	0.0165	0.9585
55.894	1.2439	52.4247	1.3925	-16.2783	-0.52202	35.3344	-50.5493	767.8139	-61.5151	321.0312	75.6003	685.5918	-0.0592	0.0182	-0.0073	-0.0462	0.0165	0.9585
55.9074	-1.682	33.2449	1.1083	-10.285	-1.3375	22.5806	-52.1604	799.9942	-66.6432	333.4492	80.3888	711.7218	-0.0592	0.0182	-0.0073	-0.0462	0.0165	0.9585
55.9209	-3.2453	18.6904	0.85487	-5.7554	-1.7129	12.8666	-52.8227	822.7613	-70.5064	341.9508	83.624	729.3051	-0.0592	0.0182	-0.0073	-0.0462	0.0165	0.9585
